<svg aria-hidden="true" style="position:absolute;width:0;height:0;overflow:hidden" xmlns="http://www.w3.org/2000/svg"><defs><symbol id="icon-bonuses" viewBox="0 0 30 32"><path fill="none" stroke="#8ab70c" style="stroke:var(--color1, #8ab70c)" stroke-width="3.433" d="M18.105 14.692h7.193v9.155a5.231 5.231 0 0 1-5.231 5.231H9.605a5.231 5.231 0 0 1-5.231-5.231v-9.155h7.193M20.72 14.692h3.923a1.962 1.962 0 0 0 1.962-1.962v-2.616a1.962 1.962 0 0 0-1.962-1.962H5.026a1.962 1.962 0 0 0-1.962 1.962v2.616c0 1.083.878 1.962 1.962 1.962h3.923"/><path fill="none" stroke="#8ab70c" style="stroke:var(--color1, #8ab70c)" stroke-width="3.433" d="M14.835 6.192a3.269 3.269 0 0 1 3.269-3.269h.654a2.616 2.616 0 1 1 0 5.232h-3.923V6.193z"/><path fill="none" stroke="#8ab70c" style="stroke:var(--color1, #8ab70c)" stroke-width="3.433" d="M14.835 6.192a3.269 3.269 0 0 0-3.269-3.269h-.654a2.616 2.616 0 1 0 0 5.232h3.923V6.193z"/><path fill="none" stroke="#8ab70c" style="stroke:var(--color1, #8ab70c)" stroke-width="3.433" d="M18.105 8.153v20.925h-6.539V8.153h6.539z"/></symbol><symbol id="icon-burger" viewBox="0 0 32 32"><path fill="none" stroke="#004125" style="stroke:var(--color2, #004125)" stroke-width="2" d="M8.667 5.333h2.667a3.333 3.333 0 0 1 3.333 3.333v2.667a3.333 3.333 0 0 1-3.333 3.333H8.667a3.333 3.333 0 0 1-3.333-3.333V8.666a3.333 3.333 0 0 1 3.333-3.333zM8.667 18.667h2.667A3.333 3.333 0 0 1 14.667 22v2.667A3.333 3.333 0 0 1 11.334 28H8.667a3.333 3.333 0 0 1-3.333-3.333V22a3.333 3.333 0 0 1 3.333-3.333zM22 5.333h2.667A3.333 3.333 0 0 1 28 8.666v2.667a3.333 3.333 0 0 1-3.333 3.333H22a3.333 3.333 0 0 1-3.333-3.333V8.666A3.333 3.333 0 0 1 22 5.333zM22 18.667h2.667A3.333 3.333 0 0 1 28 22v2.667A3.333 3.333 0 0 1 24.667 28H22a3.333 3.333 0 0 1-3.333-3.333V22A3.333 3.333 0 0 1 22 18.667z"/></symbol><symbol id="icon-download" viewBox="0 0 32 32"><path fill="none" stroke="#8ab70c" style="stroke:var(--color1, #8ab70c)" stroke-linejoin="round" stroke-linecap="round" stroke-width="3.5" d="M28.195 20v5.333A2.668 2.668 0 0 1 25.528 28H6.861a2.668 2.668 0 0 1-2.667-2.667V20M9.528 13.333 16.195 20l6.667-6.667M16.195 20V4"/></symbol><symbol id="icon-google" viewBox="0 0 131 32"><path d="M40.59 3.991a3.231 3.231 0 0 1-.866 2.358 3.324 3.324 0 0 1-2.54 1.049c-1.463-.012-2.777-.918-3.334-2.3s-.248-2.97.783-4.03A3.425 3.425 0 0 1 37.184.007c.488-.002.971.099 1.42.295.418.172.79.443 1.085.79l-.612.625A2.289 2.289 0 0 0 37.184.88c-.729-.004-1.427.296-1.935.83s-.78 1.256-.755 1.999c-.015 1.124.633 2.146 1.643 2.592s2.184.228 2.975-.553c.355-.393.56-.904.577-1.438h-2.505v-.849h3.359c.031.175.046.353.046.53zm5.288-2.947h-3.117v2.24h2.84v.849h-2.84v2.24h3.117v.872h-4.04V.172h4.04v.872zm3.786 6.201h-.889V1.044h-1.939V.172h4.814v.872h-1.986v6.201zm5.38 0V.172h.889v7.073h-.889zm4.837 0h-.889V1.044h-1.939V.172h4.756v.872h-1.928v6.201zm10.944-.92a3.548 3.548 0 0 1-5.079 0 3.878 3.878 0 0 1 0-5.246c.672-.691 1.586-1.08 2.54-1.08s1.868.389 2.54 1.08a3.866 3.866 0 0 1 0 5.246zm-4.422-.589a2.627 2.627 0 0 0 3.763 0 3.065 3.065 0 0 0 0-4.055 2.627 2.627 0 0 0-3.763 0 3.065 3.065 0 0 0 0 4.055zm6.696 1.509V.172h1.085l3.371 5.505V.172h.889v7.073h-.923L74 1.481v5.764h-.9zM64.51 17.56c1.311-.026 2.576.493 3.505 1.438s1.443 2.234 1.424 3.572c0 2.764-2.192 5.006-4.899 5.01s-4.905-2.23-4.914-4.994c-.009-2.764 2.177-5.013 4.883-5.026zm0 8.051c.766-.018 1.492-.351 2.014-.924s.795-1.336.757-2.117c-.003-1.249-.753-2.369-1.892-2.824s-2.434-.154-3.267.76c-.833.914-1.034 2.256-.507 3.383s1.675 1.81 2.895 1.723zM53.762 17.56h-.012c1.311-.026 2.576.493 3.505 1.438s1.443 2.234 1.424 3.572c0 2.765-2.194 5.008-4.902 5.01s-4.906-2.237-4.91-5.002c-.004-2.765 2.187-5.011 4.895-5.018zm0 8.051h-.012c.766-.018 1.492-.351 2.013-.924s.795-1.336.757-2.117c-.003-1.25-.755-2.37-1.895-2.825s-2.437-.151-3.268.766c-.832.917-1.03 2.26-.499 3.386s1.682 1.806 2.903 1.714zM40.96 19.104l7.007-.059c.081.439.119.885.115 1.332a7.16 7.16 0 0 1-1.801 4.975 6.854 6.854 0 0 1-5.322 2.181c-2.795.111-5.425-1.348-6.855-3.803s-1.43-5.512 0-7.966c1.43-2.455 4.06-3.914 6.855-3.803a7.191 7.191 0 0 1 5.23 2.204l-1.466 1.497a5.253 5.253 0 0 0-3.775-1.521c-3.06 0-5.541 2.533-5.541 5.658s2.481 5.658 5.541 5.658a5.047 5.047 0 0 0 3.844-1.556 4.493 4.493 0 0 0 1.154-2.676h-4.987v-2.122zm52.307 1.65.242.53-6.569 2.77a2.491 2.491 0 0 0 2.378 1.521 2.795 2.795 0 0 0 2.413-1.391l1.674 1.179a4.855 4.855 0 0 1-4.087 2.216c-1.304.02-2.559-.503-3.478-1.448s-1.422-2.231-1.393-3.562c-.08-1.301.371-2.577 1.246-3.526s2.095-1.486 3.372-1.484c1.914.072 3.586 1.343 4.202 3.195zm-6.696 1.674 4.387-1.863a1.898 1.898 0 0 0-1.824-1.061c-.722.033-1.401.362-1.883.912s-.727 1.275-.68 2.012zm-5.334 4.857V12.55h2.159v14.735h-2.159zm-3.532-8.606v-.825h1.986v8.924c0 3.701-2.09 5.222-4.618 5.222-1.906.012-3.628-1.159-4.352-2.959l1.882-.802a2.717 2.717 0 0 0 2.471 1.78c1.616 0 2.621-1.026 2.621-2.947v-.719h-.069a3.32 3.32 0 0 1-2.586 1.179c-2.62-.13-4.68-2.337-4.68-5.016s2.059-4.886 4.68-5.016a3.431 3.431 0 0 1 2.586 1.179h.081zm-2.471 6.932h-.011c.75-.029 1.456-.371 1.953-.946s.742-1.332.679-2.096c.057-.76-.189-1.512-.682-2.085s-1.192-.918-1.938-.957c-1.544.139-2.727 1.459-2.727 3.041s1.184 2.902 2.727 3.041zM98.219 12.55h5.172c1.676-.123 3.281.721 4.156 2.187s.875 3.308 0 4.774a4.465 4.465 0 0 1-4.156 2.187h-3.013v5.587h-2.159V12.55zm5.161 7.072.045.035c1.368 0 2.476-1.132 2.476-2.529s-1.109-2.529-2.476-2.529h-3.059v5.022h3.013zm13.31-2.121.058.035c2.459 0 4.376 1.497 4.376 4.079v5.67h-2.078v-1.179h-.07a3.018 3.018 0 0 1-2.771 1.415c-.898.068-1.786-.238-2.46-.849s-1.077-1.474-1.118-2.393c0-2.134 2.089-3.312 4.156-3.312a4.682 4.682 0 0 1 2.25.566v-.153a2.135 2.135 0 0 0-.764-1.443 2.05 2.05 0 0 0-1.544-.455 2.034 2.034 0 0 0-1.962 1.084l-1.917-.813c.728-1.465 2.238-2.35 3.844-2.251zm-.266 8.074.058.035c1.301-.032 2.378-1.038 2.528-2.358a3.776 3.776 0 0 0-1.962-.495c-1.085 0-2.309.389-2.309 1.568 0 .884.982 1.25 1.686 1.25zm12.272-7.721h2.401l-5.911 13.898h-2.251l2.194-4.963-3.844-8.935h2.309l2.563 6.389h.069l2.47-6.389zm-19.406 9.431V12.55h2.158v14.735h-2.158zM24.141 15.026c.289.167.462.467.462.802s-.173.634-.463.801l-5.255 3.033-3.689-3.566 4.036-3.902 4.908 2.832zm-5.74-3.314-3.869 3.74L1.163 2.529l11.836 6.065 5.401 3.118zM1.36 29.471l13.172-12.733 3.521 3.404-5.033 2.906-11.66 6.423zM.374 3.052l13.493 13.043L.362 29.15.375 3.052z"/></symbol><symbol id="icon-home" viewBox="0 0 32 32"><path fill="none" stroke="#004125" style="stroke:var(--color2, #004125)" stroke-width="2.667" d="M3.333 14.585a5.33 5.33 0 0 1 2.029-4.186l7.333-5.789a5.333 5.333 0 0 1 6.61 0l7.333 5.789a5.334 5.334 0 0 1 2.029 4.186v8.749a5.333 5.333 0 0 1-5.333 5.333h-2a1.333 1.333 0 0 1-1.333-1.333v-4a2.667 2.667 0 0 0-2.667-2.667h-2.667A2.667 2.667 0 0 0 12 23.334v4c0 .736-.597 1.333-1.333 1.333h-2a5.333 5.333 0 0 1-5.333-5.333v-8.749z"/></symbol><symbol id="icon-left" viewBox="0 0 32 32"><path stroke-linejoin="round" stroke-linecap="round" stroke-width=".951" d="M19.96 8.079 12.039 16l7.921 7.921"/></symbol><symbol id="icon-minus" viewBox="0 0 32 32"><path fill="none" stroke="#183f1e" style="stroke:var(--color3, #183f1e)" stroke-linejoin="round" stroke-linecap="round" stroke-width="1.959" d="M6.667 16h18.667"/></symbol><symbol id="icon-offline" viewBox="0 0 32 32"><path fill="none" stroke="#8ab70c" style="stroke:var(--color1, #8ab70c)" stroke-linejoin="round" stroke-linecap="round" stroke-width="3.054" d="m3.103 3.203 25.793 25.593M21.534 14.907c.96.465 1.858 1.047 2.673 1.733M7.793 16.64a12.864 12.864 0 0 1 6.061-2.78M14.488 7.915c2.512-.201 5.039.103 7.43.892s4.597 2.049 6.487 3.703M3.596 12.51a18.68 18.68 0 0 1 5.51-3.35M11.932 20.781a7.072 7.072 0 0 1 8.148 0M16 25.307h.012"/></symbol><symbol id="icon-plus" viewBox="0 0 33 32"><path fill="none" stroke="#183f1e" style="stroke:var(--color3, #183f1e)" stroke-linejoin="round" stroke-linecap="round" stroke-width="2.667" d="M16.348 6.667v18.667M6.812 16h19.072"/></symbol><symbol id="icon-reviews" viewBox="0 0 46 32"><path fill="#8ab70c" style="fill:var(--color1, #8ab70c)" d="M11.045 17.858h1.578v-.002l-1.578.002zm1.954 9.252zm3.4-2.72zm-3.775-13.754a4.434 4.434 0 0 1 4.434-4.434V3.046a7.59 7.59 0 0 0-7.59 7.59h3.156zm0 7.215v-7.215H9.468v7.215h3.156zm0 .005v-.005H9.468v.009l3.156-.004zm0 8.315v-8.313H9.468v8.313h3.156zm-.611-.293a.376.376 0 0 1 .611.293H9.468c0 2.332 2.697 3.628 4.518 2.171l-1.972-2.465zm3.4-2.72-3.4 2.72 1.972 2.465 3.4-2.72-1.972-2.465zm13.669-.873H17.901v3.156h11.181v-3.156zm4.434-4.434a4.434 4.434 0 0 1-4.434 4.434v3.156a7.59 7.59 0 0 0 7.59-7.59h-3.156zm0-7.215v7.215h3.156v-7.215h-3.156zm-4.434-4.434a4.434 4.434 0 0 1 4.434 4.434h3.156a7.59 7.59 0 0 0-7.59-7.59v3.156zm-12.024 0h12.024V3.046H17.058v3.156zm.327 19.42a.83.83 0 0 1 .516-.181v-3.156c-.904 0-1.782.308-2.488.873l1.972 2.465zM18.621 14.304a1.503 1.503 0 1 1-3.006 0 1.503 1.503 0 0 1 3.006 0zM24.633 14.304a1.503 1.503 0 1 1-3.006 0 1.503 1.503 0 0 1 3.006 0zM30.645 14.304a1.503 1.503 0 1 1-3.006 0 1.503 1.503 0 0 1 3.006 0z"/></symbol><symbol id="icon-right" viewBox="0 0 32 32"><path stroke-linejoin="round" stroke-linecap="round" stroke-width=".951" d="M12.04 23.921 19.961 16 12.04 8.079"/></symbol><symbol id="icon-special" viewBox="0 0 63 32"><path fill="#8ab70c" style="fill:var(--color1, #8ab70c);stroke:var(--color1, #8ab70c)" stroke="#8ab70c" stroke-width="2" d="M33.964 4.23c-.003-.102-.114-.168-.201-.116-4.62 2.76-4.535 9.685-4.48 10.939.004.095-.085.161-.171.121-.534-.251-2.063-1.198-2.148-3.821-.003-.102-.113-.167-.201-.115-2.675 1.586-4.47 4.514-4.47 7.762 0 4.971 4.179 9 9.333 9s9.333-4.029 9.333-9c0-7.221-6.826-8.774-6.997-14.77z"/></symbol><symbol id="icon-star" viewBox="0 0 32 32"><path fill="#8ab70c" style="fill:var(--color1, #8ab70c)" d="M14.114 1.225c.729-1.303 2.604-1.303 3.333 0l3.774 6.745c.257.46.693.793 1.205.921l7.335 1.827a1.91 1.91 0 0 1 1.024 3.052l-5.071 6.284a1.908 1.908 0 0 0-.417 1.353l.657 8.146c.117 1.452-1.37 2.495-2.695 1.891l-6.687-3.047a1.912 1.912 0 0 0-1.584 0l-6.687 3.047c-1.326.604-2.812-.439-2.695-1.891l.657-8.146a1.913 1.913 0 0 0-.417-1.353L.775 13.77a1.91 1.91 0 0 1 1.024-3.052l7.335-1.827a1.912 1.912 0 0 0 1.205-.921l3.774-6.745z"/></symbol><symbol id="icon-x" viewBox="0 0 32 32"><path fill="#004125" style="fill:var(--color2, #004125)" d="M8.267 25.333 6.4 23.466l7.467-7.467L6.4 8.532l1.867-1.867 7.467 7.467 7.467-7.467 1.867 1.867-7.467 7.467 7.467 7.467-1.867 1.867-7.467-7.467-7.467 7.467z"/></symbol></defs></svg>